<?xml version="1.0" encoding="utf-8"?>
<svg width="92px" height="37px" viewBox="0 0 92 37" version="1.1" xmlns:xlink="http://www.w3.org/1999/xlink" xmlns="http://www.w3.org/2000/svg">
  <desc>Created with Lunacy</desc>
  <g id="AnimTv" fill="#1E234B">
    <path d="M36.8215 10.8532Q36.2281 10.8532 35.8099 10.4486Q35.3918 10.0439 35.3918 9.42349Q35.3918 8.80306 35.8099 8.39168Q36.2281 7.98031 36.8215 7.9803Q37.4285 7.9803 37.8533 8.39168Q38.2782 8.80306 38.2782 9.42349Q38.2782 10.017 37.8533 10.4351Q37.4285 10.8532 36.8215 10.8532ZM14.9984 28.1714L17.5071 28.1714L10.0619 8.83003L7.71499 8.83003L0.29673 28.1714L2.81894 28.1714L4.74768 22.7494L12.9482 22.7494L14.9984 28.1714ZM77.9052 10.8802L72.3213 10.8802L72.3213 28.1714L70.0553 28.1714L70.0553 10.8802L64.4849 10.8802L64.4849 8.83003L77.9052 8.83003L77.9052 10.8802ZM9.17166 12.4717L12.2064 20.7127L5.503 20.7127L8.51076 12.4717Q8.6861 11.9997 8.82098 11.1769L8.87493 11.1769Q9.0233 12.0671 9.17166 12.4717ZM29.3089 28.1714L31.5208 28.1714L31.5208 19.7281Q31.5208 16.9631 30.3204 15.4997Q29.12 14.0363 26.8541 14.0363Q23.8868 14.0363 22.3222 16.6529L22.2683 16.6529L22.2683 14.36L20.0563 14.36L20.0563 28.1714L22.2683 28.1714L22.2683 20.2946Q22.2683 18.3928 23.354 17.1452Q24.4398 15.8976 26.0988 15.8976Q29.3089 15.8976 29.3089 20.2946L29.3089 28.1714ZM59.7777 28.1714L61.9896 28.1714L61.9896 19.6607Q61.9896 14.0363 57.4308 14.0363Q54.3826 14.0363 52.845 16.8957Q52.4538 15.6144 51.4018 14.8253Q50.3497 14.0363 48.9335 14.0363Q46.1146 14.0363 44.6444 16.545L44.5905 16.545L44.5905 14.36L42.3785 14.36L42.3785 28.1714L44.5905 28.1714L44.5905 20.2946Q44.5905 18.3389 45.5346 17.1182Q46.4787 15.8976 47.9354 15.8976Q51.0781 15.8976 51.0781 19.9709L51.0781 28.1714L53.2901 28.1714L53.2901 20.2946Q53.2901 18.4873 54.2814 17.1924Q55.2728 15.8976 56.689 15.8976Q58.3614 15.8976 59.0695 16.9227Q59.7777 17.9477 59.7777 20.2407L59.7777 28.1714ZM37.9005 28.1714L35.6886 28.1714L35.6886 14.36L37.9005 14.36L37.9005 28.1714ZM85.9978 28.1714L91.5008 14.36L89.1674 14.36L85.4988 24.4488Q85.202 25.2851 85.0672 26.3236L85.0132 26.3236Q84.9188 25.5009 84.5277 24.3949L81.0208 14.36L78.593 14.36L83.8263 28.1714L85.9978 28.1714Z" />
  </g>
</svg>