<?xml version="1.0" encoding="utf-8"?>
<svg width="20px" height="20px" viewBox="0 0 20 20" version="1.1"
    xmlns:xlink="http://www.w3.org/1999/xlink"
    xmlns="http://www.w3.org/2000/svg">
    <desc>Created with Lunacy</desc>
    <path d="M14.7456 13.586L19.489 18.3294C19.8112 18.6475 19.8112 19.1709 19.489 19.489C19.1669 19.8112 18.6475 19.8112 18.3253 19.489L13.5819 14.7497C12.1484 15.9254 10.3163 16.6301 8.31505 16.6301C3.72063 16.6301 0 12.9054 0 8.31505C0 3.72466 3.72063 0 8.31505 0C12.9054 0 16.6301 3.72466 16.6301 8.31505C16.6301 10.3163 15.9214 12.1525 14.7456 13.586ZM1.65093 8.31505C1.65093 11.9874 4.63871 14.9751 8.31505 14.9751C11.9874 14.9751 14.9792 11.9874 14.9792 8.31505C14.9792 4.64274 11.9874 1.65093 8.31505 1.65093C4.63871 1.65093 1.65093 4.64274 1.65093 8.31505Z" id="Shape" fill="#1E234B" fill-rule="evenodd" stroke="none" />
</svg>